<svg xmlns="http://www.w3.org/2000/svg" viewBox="0 0 64 64" fill="none">
  <defs>
    <clipPath id="clip"><rect x="4" y="4" width="56" height="56" rx="12"/></clipPath>
  </defs>
  <g clip-path="url(#clip)">
    <rect x="4" y="4" width="56" height="56" rx="12" fill="#1E3554"/>
    <path d="M4 38 A28 28 0 0 1 60 38" fill="none" stroke="#C0622A" stroke-width="5"/>
    <path d="M7 38 A25 25 0 0 1 57 38" fill="none" stroke="#E8B84B" stroke-width="5"/>
    <path d="M10 38 A22 22 0 0 1 54 38" fill="none" stroke="#F2CC74" stroke-width="5"/>
    <path d="M13 38 A19 19 0 0 1 51 38" fill="none" stroke="#7A9A5A" stroke-width="5"/>
    <g fill="#F5D06B">
      <path d="M12 14 L13 17 L16 17 L13.5 19 L14.5 22 L12 20 L9.5 22 L10.5 19 L8 17 L11 17 Z"/>
      <circle cx="52" cy="14" r="1.3"/>
      <circle cx="18" cy="24" r="1"/>
      <circle cx="48" cy="24" r="1"/>
      <circle cx="13" cy="32" r="0.8"/>
      <circle cx="51" cy="32" r="0.8"/>
    </g>
    <path d="M20 34 Q20 18 32 18 Q44 18 44 34 L44 54 L40 50 L36 54 L32 50 L28 54 L24 50 L20 54 Z" fill="#FDF4DC"/>
    <circle cx="28" cy="28" r="1.4" fill="#1E3554"/>
    <circle cx="36" cy="28" r="1.4" fill="#1E3554"/>
    <circle cx="28.4" cy="27.6" r="0.5" fill="#FDF4DC"/>
    <circle cx="36.4" cy="27.6" r="0.5" fill="#FDF4DC"/>
    <circle cx="25" cy="31" r="1.6" fill="#FF9BB0" opacity=".75"/>
    <circle cx="39" cy="31" r="1.6" fill="#FF9BB0" opacity=".75"/>
    <path d="M30 31 Q32 33 34 31" stroke="#1E3554" stroke-width="1" fill="none" stroke-linecap="round"/>
    <g transform="translate(24.8 34.8) scale(0.6)">
      <path d="M12 21 C12 21 2 13 2 7 C2 4 4 2 7 2 C9 2 11 3 12 5 C13 3 15 2 17 2 C20 2 22 4 22 7 C22 13 12 21 12 21 Z" fill="#FF6B8A" stroke="#C0323E" stroke-width="0.5"/>
    </g>
  </g>
  <rect x="4" y="4" width="56" height="56" rx="12" fill="none" stroke="#E8B84B" stroke-width="2.5"/>
</svg>
